<?xml version="1.0" encoding="utf-8"?>
<!-- Generator: Adobe Illustrator 16.0.0, SVG Export Plug-In . SVG Version: 6.00 Build 0)  -->
<!DOCTYPE svg PUBLIC "-//W3C//DTD SVG 1.1//EN" "http://www.w3.org/Graphics/SVG/1.1/DTD/svg11.dtd">
<svg version="1.1" id="Layer_1" xmlns="http://www.w3.org/2000/svg" xmlns:xlink="http://www.w3.org/1999/xlink" x="0px" y="0px"
	 width="200px" height="200px" viewBox="0 0 200 200" enable-background="new 0 0 200 200" xml:space="preserve">
<g>
	<g>
		<path fill="#FFFFFF" d="M147.727,142.813h-18.502c0-0.21,0-0.421-0.21-0.842l-3.154-11.983
			c14.297-10.303,23.127-22.708,25.23-36.164c7.988-1.683,11.773-7.358,11.773-17.24c0-7.57-1.683-12.826-5.467-15.979
			c-1.472-1.261-3.994-2.733-7.358-3.154c0.211-5.466,0-11.773-0.421-19.763c-0.21-3.995-0.842-7.569-1.892-10.723
			c1.261-5.887,1.892-12.614,0.84-17.871c-0.42-1.893-2.523-3.154-4.204-2.313c-1.053,0.42-2.102,0.841-3.364,1.051
			c0.21-1.682,0.21-3.364,0.21-5.046c-0.21-2.103-2.522-3.364-4.414-2.523c-8.411,3.154-21.025,6.097-37.004,6.097
			c-26.492,0-48.147,1.262-50.04,31.327c-0.631,7.779-0.631,14.297-0.421,19.763c-3.574,0.42-5.887,1.682-7.569,3.154
			c-3.575,3.154-5.256,8.41-5.256,15.979c0,9.882,3.784,15.558,11.774,17.24c2.313,13.456,10.933,25.861,25.23,36.164l-3.154,11.983
			c0,0.211,0,0.421-0.21,0.842H51.853c-16.82,0-30.276,13.665-30.276,30.274v18.923c0,4.416,3.574,7.99,7.989,7.99h140.866
			c4.415,0,7.99-3.574,7.99-7.99v-18.923C178.002,156.479,164.335,142.813,147.727,142.813z M56.898,90.46
			c-0.21-2.943-2.522-5.046-5.256-5.467c-3.575-0.42-6.098-0.631-6.098-8.409c0-6.098,1.472-8.2,2.313-9.041
			c0.21-0.21,1.051-0.841,2.733-0.841c0.21,2.943,0.631,5.466,1.051,7.148c0.841,3.154,9.041,2.944,9.461,0.21
			c0.42-2.313-1.472-18.082,6.097-32.168c7.779,3.154,19.554,5.256,32.589,5.256c13.035,0,24.809-2.103,32.588-5.256
			c7.359,14.086,5.676,29.855,5.887,32.168c0.421,2.733,8.831,2.943,9.462-0.21c0.42-1.472,0.631-4.205,1.05-7.148
			c1.684,0,2.523,0.63,2.733,0.841c0.842,0.841,2.313,2.943,2.313,9.041c0,7.778-2.522,7.989-5.886,8.409
			c-2.942,0.211-5.046,2.523-5.466,5.257c-1.263,11.984-8.831,22.917-22.287,32.378c-11.983,8.409-28.804,8.409-40.578,0
			C65.729,113.378,58.16,102.445,56.898,90.46z M117.029,153.326l-12.404,9.25c-2.943,2.313-7.148,2.313-10.092,0l-12.404-9.25
			c-2.733-2.104-3.995-5.467-3.154-8.832l2.523-9.67c5.676,2.522,11.774,3.784,17.871,3.784c6.098,0,12.404-1.472,17.871-3.784
			l2.523,9.67C121.025,147.859,119.763,151.223,117.029,153.326z"/>
		<path fill="#FFFFFF" d="M79.396,95.086c2.103,9.251,10.302,16.4,20.184,16.4c9.881,0,18.292-6.939,20.184-16.4
			c0.421-1.893-1.05-3.575-2.943-3.575h-34.69C80.236,91.511,78.975,93.404,79.396,95.086z"/>
		<path fill="#FFFFFF" d="M82.129,81.63l9.25-6.518c1.052-0.841,1.683-2.103,1.683-3.364c0-1.261-0.631-2.523-1.683-3.364
			l-9.25-6.518c-1.893-1.261-4.416-0.84-5.677,1.052s-0.841,4.415,1.052,5.677l4.625,3.153l-4.625,3.154
			c-1.893,1.261-2.313,3.785-1.052,5.677c0.841,1.052,2.103,1.682,3.364,1.682C80.446,82.471,81.288,82.26,82.129,81.63z"/>
		<circle fill="#FFFFFF" cx="115.348" cy="71.748" r="8.199"/>
	</g>
	<rect fill="none" width="200" height="200"/>
</g>
</svg>
