<?xml version="1.0" encoding="utf-8"?>
<!-- Generator: Adobe Illustrator 16.0.0, SVG Export Plug-In . SVG Version: 6.00 Build 0)  -->
<!DOCTYPE svg PUBLIC "-//W3C//DTD SVG 1.1//EN" "http://www.w3.org/Graphics/SVG/1.1/DTD/svg11.dtd">
<svg version="1.1" id="Layer_1" xmlns="http://www.w3.org/2000/svg" xmlns:xlink="http://www.w3.org/1999/xlink" x="0px" y="0px"
	 width="200px" height="200px" viewBox="495.275 320.945 200 200" enable-background="new 495.275 320.945 200 200"
	 xml:space="preserve">
<title>emoji-emoticon-expression-smile-happy-frendly-well_1</title>
<linearGradient id="SVGID_1_" gradientUnits="userSpaceOnUse" x1="524.5642" y1="491.6563" x2="665.9857" y2="350.2348">
	<stop  offset="0" style="stop-color:#F441A5"/>
	<stop  offset="1" style="stop-color:#03A9F4"/>
</linearGradient>
<path fill="url(#SVGID_1_)" d="M595.275,320.945c-55.229,0-100,44.771-100,100s44.771,100,100,100s100-44.771,100-100
	S650.503,320.945,595.275,320.945z M595.275,511.422c-49.969,0-90.477-40.508-90.477-90.477s40.508-90.477,90.477-90.477
	s90.477,40.508,90.477,90.477S645.243,511.422,595.275,511.422z M565.512,382.85c5.26,0,9.524,4.265,9.524,9.524
	s-4.264,9.523-9.524,9.523c-5.259,0-9.523-4.264-9.523-9.523S560.253,382.85,565.512,382.85z M625.036,382.85
	c5.26,0,9.524,4.265,9.524,9.524s-4.265,9.523-9.524,9.523s-9.523-4.264-9.523-9.523S619.777,382.85,625.036,382.85z
	 M654.798,425.707H535.751c-2.63,0-4.762,2.132-4.762,4.762c0,33,30.047,61.905,64.286,61.905s64.285-28.905,64.285-61.905
	C659.56,427.839,657.429,425.707,654.798,425.707z M595.275,482.851c-15.093-0.14-29.46-6.496-39.714-17.572
	c3.762-0.985,7.635-1.481,11.524-1.476c9.053-0.299,17.917,2.639,25,8.285c1.813,1.636,4.568,1.636,6.381,0
	c7.083-5.646,15.946-8.584,25-8.285c3.889-0.006,7.763,0.49,11.523,1.476C624.736,476.354,610.367,482.711,595.275,482.851z
	 M641.323,457.326c-5.733-2.032-11.774-3.063-17.857-3.048c-10.01-0.193-19.843,2.663-28.19,8.19
	c-8.348-5.527-18.18-8.384-28.19-8.19c-6.083-0.016-12.124,1.016-17.857,3.048c-4.483-6.612-7.368-14.177-8.428-22.096h108.953
	C648.691,443.149,645.806,450.714,641.323,457.326z"/>
<text transform="matrix(1 0 0 1 258.5217 954.1406)" font-family="'Arial-BoldMT'" font-size="70.1575">from the Noun Project</text>
</svg>
