<?xml version="1.0" encoding="utf-8"?>
<!-- Generator: Adobe Illustrator 16.0.0, SVG Export Plug-In . SVG Version: 6.00 Build 0)  -->
<!DOCTYPE svg PUBLIC "-//W3C//DTD SVG 1.1//EN" "http://www.w3.org/Graphics/SVG/1.1/DTD/svg11.dtd">
<svg version="1.1" id="Layer_1" xmlns="http://www.w3.org/2000/svg" xmlns:xlink="http://www.w3.org/1999/xlink" x="0px" y="0px"
	 width="200px" height="200px" viewBox="495.275 320.945 200 200" enable-background="new 495.275 320.945 200 200"
	 xml:space="preserve">
<g>
	<linearGradient id="SVGID_1_" gradientUnits="userSpaceOnUse" x1="528.469" y1="488.0781" x2="666.418" y2="350.1292">
		<stop  offset="0" style="stop-color:#F441A5"/>
		<stop  offset="1" style="stop-color:#03A9F4"/>
	</linearGradient>
	<path fill="url(#SVGID_1_)" d="M540.463,488.356v7.531c0,5.579,4.742,10.321,10.321,10.321h14.226
		c5.579,0,10.321-4.742,10.321-10.321v-5.3h23.152v5.3c0,5.579,4.742,10.321,10.32,10.321h14.227c5.578,0,10.32-4.742,10.32-10.321
		v-7.531c20.362-5.857,36.263-21.479,42.398-41.841h8.09c6.416,0,11.437-5.021,11.437-11.437v-13.39
		c0-6.415-5.021-11.436-11.437-11.436h-8.09c-4.184-14.226-13.668-26.221-25.94-34.31c2.231-15.899,5.299-33.473,5.299-33.751
		c0.559-2.511-0.837-4.742-2.789-5.858c-2.231-1.116-4.742-0.837-6.415,1.116l-28.731,28.731c-0.278,0-0.837,0-1.115,0h-58.578
		c-34.31,0-62.204,27.894-62.204,62.203C495.275,456.278,513.964,480.825,540.463,488.356z M557.478,377.06h58.578
		c0.837,0,1.395,0,1.952,0h0.837c1.674,0,3.068-0.558,4.185-1.673l17.572-17.853c-1.115,6.416-2.23,13.668-3.067,20.363
		c-0.279,2.231,0.837,4.463,2.789,5.579c12.552,6.974,21.757,19.247,25.104,33.473c0.558,2.51,2.789,4.463,5.579,4.463h12.273
		c0.278,0,0.278,0,0.278,0.278v13.39c0,0.278,0,0.278-0.278,0.278h-12.273c-2.511,0-4.742,1.674-5.579,4.464
		c-4.463,19.525-19.805,34.867-39.33,38.772c-2.511,0.558-4.464,2.789-4.464,5.579v11.157h-12.552v-10.32
		c0-3.069-2.511-5.579-5.579-5.579h-33.752c-3.068,0-5.579,2.51-5.579,5.579v10.041h-12.552v-11.157
		c0-2.511-1.953-5.021-4.463-5.579c-23.71-4.742-40.725-25.941-40.725-50.209C506.432,400.211,529.305,377.06,557.478,377.06z
		 M582.025,395.191h26.499c3.069,0,5.579-2.511,5.579-5.579s-2.51-5.579-5.579-5.579h-26.499c-3.068,0-5.579,2.51-5.579,5.579
		S578.677,395.191,582.025,395.191z"/>
	<rect x="495.275" y="320.945" fill="none" width="200" height="200"/>
</g>
</svg>
