<?xml version="1.0" encoding="utf-8"?>
<!-- Generator: Adobe Illustrator 16.0.0, SVG Export Plug-In . SVG Version: 6.00 Build 0)  -->
<!DOCTYPE svg PUBLIC "-//W3C//DTD SVG 1.1//EN" "http://www.w3.org/Graphics/SVG/1.1/DTD/svg11.dtd">
<svg version="1.1" id="Layer_1" xmlns="http://www.w3.org/2000/svg" xmlns:xlink="http://www.w3.org/1999/xlink" x="0px" y="0px"
	 width="200px" height="200px" viewBox="0 0 200 200" enable-background="new 0 0 200 200" xml:space="preserve">
<path fill="#FFFFFF" d="M100.001,64.981c17.915,0,32.491-14.575,32.491-32.49C132.492,14.575,117.916,0,100.001,0
	C82.085,0,67.509,14.575,67.509,32.491C67.509,50.406,82.085,64.981,100.001,64.981z M100.001,11.854
	c11.379,0,20.638,9.258,20.638,20.638c0,11.379-9.259,20.638-20.638,20.638c-11.38,0-20.639-9.259-20.639-20.638
	C79.362,21.111,88.621,11.854,100.001,11.854z M99.592,155.083c14.389,0,23.327-7.456,23.327-19.456
	c0-12.862-10.464-23.328-23.327-23.328c-12.863,0-23.327,10.464-23.327,23.328C76.266,147.627,85.205,155.083,99.592,155.083z
	 M99.592,124.153c6.327,0,11.474,5.147,11.474,11.474c0,1.881,0,7.604-11.474,7.604c-11.473,0-11.473-5.723-11.473-7.604
	C88.119,129.3,93.266,124.153,99.592,124.153z M149.435,43.223c-2.594-2-6.315-1.52-8.314,1.072
	c-1.999,2.593-1.519,6.313,1.073,8.313c17.128,13.212,26.951,33.181,26.951,54.783c0,21.673-9.876,41.677-27.097,54.89
	c-1.462,1.122-2.32,2.858-2.32,4.702v11.612c0,5.268-4.11,9.551-9.165,9.551c-4.496,0-8.384-3.506-9.049-8.156
	c-0.229-1.626-1.125-3.08-2.47-4.021c-1.346-0.939-3.02-1.281-4.625-0.94c-4.729,1-9.581,1.509-14.42,1.509
	c-4.845,0-9.7-0.509-14.433-1.512c-1.606-0.341-3.28,0-4.625,0.94c-1.345,0.94-2.239,2.396-2.471,4.021
	c-0.662,4.652-4.553,8.158-9.047,8.158c-5.054,0-9.165-4.283-9.165-9.551v-11.622c0-1.841-0.857-3.58-2.318-4.7
	c-17.213-13.215-27.085-33.218-27.085-54.882c0-21.6,9.823-41.566,26.949-54.78c2.591-2,3.072-5.722,1.071-8.313
	c-1.999-2.591-5.721-3.071-8.313-1.071C30.503,58.7,19,82.088,19,107.391c0,24.386,10.681,46.972,29.403,62.431v8.773
	c0,11.803,9.429,21.405,21.019,21.405c8.292,0,15.668-5.055,19.047-12.436c3.816,0.545,7.677,0.827,11.53,0.827
	c3.849,0,7.706-0.281,11.519-0.825c3.378,7.379,10.754,12.434,19.046,12.434c11.59,0,21.02-9.603,21.02-21.405v-8.763
	C170.313,154.373,181,131.786,181,107.391C181,82.084,169.493,58.696,149.435,43.223z M85.597,89.462
	c0-3.226-2.615-5.841-5.84-5.841c-3.226,0-5.841,2.615-5.841,5.841s2.615,5.841,5.841,5.841
	C82.982,95.303,85.597,92.688,85.597,89.462z M128.045,89.462c0-3.226-2.615-5.841-5.841-5.841s-5.841,2.615-5.841,5.841
	s2.615,5.841,5.841,5.841S128.045,92.688,128.045,89.462z"/>
<rect fill="none" width="200" height="200"/>
</svg>
