<?xml version="1.0" encoding="utf-8"?>
<!-- Generator: Adobe Illustrator 16.0.0, SVG Export Plug-In . SVG Version: 6.00 Build 0)  -->
<!DOCTYPE svg PUBLIC "-//W3C//DTD SVG 1.1//EN" "http://www.w3.org/Graphics/SVG/1.1/DTD/svg11.dtd">
<svg version="1.1" id="Layer_1" xmlns="http://www.w3.org/2000/svg" xmlns:xlink="http://www.w3.org/1999/xlink" x="0px" y="0px"
	 width="200px" height="200px" viewBox="0 0 200 200" enable-background="new 0 0 200 200" xml:space="preserve">
<g>
	<g transform="translate(0,-952.36218)">
		<path fill="#FFFFFF" d="M100,972.501c-55.097,0-100,44.903-100,100c0,22.34,7.341,43.048,19.792,59.723l16.753-14.758
			c-8.973-12.682-14.323-28.182-14.323-44.965c0-43.087,34.691-77.778,77.778-77.778s77.777,34.691,77.777,77.778
			c0,16.783-5.35,32.283-14.322,44.965l16.753,14.758c12.45-16.675,19.792-37.383,19.792-59.723
			C200,1017.404,155.097,972.501,100,972.501z M134.723,1042.9l-38.542,46.788c-3.34,0.957-6.372,3.177-8.247,6.424
			c-3.835,6.643-1.521,15.175,5.122,19.01c6.643,3.836,15.175,1.521,19.011-5.121c1.874-3.247,2.229-6.959,1.389-10.33
			L134.723,1042.9L134.723,1042.9z"/>
	</g>
	<rect fill="none" width="200" height="200"/>
</g>
</svg>
