<?xml version="1.0" encoding="utf-8"?>
<!-- Generator: Adobe Illustrator 16.0.0, SVG Export Plug-In . SVG Version: 6.00 Build 0)  -->
<!DOCTYPE svg PUBLIC "-//W3C//DTD SVG 1.1//EN" "http://www.w3.org/Graphics/SVG/1.1/DTD/svg11.dtd">
<svg version="1.1" id="Layer_1" xmlns="http://www.w3.org/2000/svg" xmlns:xlink="http://www.w3.org/1999/xlink" x="0px" y="0px"
	 width="200px" height="200px" viewBox="495.275 320.945 200 200" enable-background="new 495.275 320.945 200 200"
	 xml:space="preserve">
<g>
	<linearGradient id="SVGID_1_" gradientUnits="userSpaceOnUse" x1="495.2747" y1="420.9453" x2="695.2747" y2="420.9453">
		<stop  offset="0" style="stop-color:#F441A5"/>
		<stop  offset="1" style="stop-color:#03A9F4"/>
	</linearGradient>
	<path fill="url(#SVGID_1_)" d="M594.164,394.168c0-2.89-2.445-5.334-5.333-5.334h-66.667c-2.889,0-5.334,2.444-5.334,5.334
		c0,2.889,2.445,5.333,5.334,5.333h66.667C591.941,399.501,594.164,397.057,594.164,394.168z M585.497,419.723
		c0-2.889-2.444-5.333-5.333-5.333h-35.111c-2.889,0-5.333,2.444-5.333,5.333c0,2.89,2.444,5.334,5.333,5.334h35.111
		C583.275,425.057,585.497,422.612,585.497,419.723z M637.719,363.278H500.608c-2.889,0-5.333,2.444-5.333,5.334
		c0,2.889,2.444,5.333,5.333,5.333h137.333c26,0,46.889,21.111,46.889,46.889c0,25.778-21.111,46.89-46.889,46.89
		c-17.556,0-33.556-9.778-41.778-25.334c-0.889-1.777-2.667-2.889-4.667-2.889h-27.333c-2.889,0-5.333,2.444-5.333,5.333
		s2.444,5.334,5.333,5.334h24c10.223,17.556,29.111,28.444,49.556,28.444c31.778-0.223,57.556-26,57.556-57.778
		C695.275,389.057,669.497,363.278,637.719,363.278z M637.719,383.278c-3.111,0-5.777,2.667-5.777,5.778v32.889l0,0
		c0,0.444,0,0.667,0,1.111l0,0c0,0.444,0.222,0.666,0.222,1.11l0,0c0.223,0.223,0.223,0.667,0.445,0.89l0,0
		c0.222,0.222,0.443,0.666,0.666,0.889l0,0l14.667,14.667c1.111,1.111,2.666,1.777,4,1.777c1.556,0,2.889-0.666,4-1.777
		c2.222-2.223,2.222-6,0-8.223l-13.111-13.111v-30.222C643.497,385.945,641.052,383.278,637.719,383.278z"/>
	<rect x="495.275" y="320.945" fill="none" width="200" height="200"/>
</g>
</svg>
