<?xml version="1.0" encoding="utf-8"?>
<!-- Generator: Adobe Illustrator 16.0.0, SVG Export Plug-In . SVG Version: 6.00 Build 0)  -->
<!DOCTYPE svg PUBLIC "-//W3C//DTD SVG 1.1//EN" "http://www.w3.org/Graphics/SVG/1.1/DTD/svg11.dtd">
<svg version="1.1" id="Layer_1" xmlns="http://www.w3.org/2000/svg" xmlns:xlink="http://www.w3.org/1999/xlink" x="0px" y="0px"
	 width="489.142px" height="175.716px" viewBox="0 0 489.142 175.716" enable-background="new 0 0 489.142 175.716"
	 xml:space="preserve">
<g>
	<g>
		<path fill="#00D442" d="M384.936,104.718c-0.16,0.164-0.29,0.354-0.456,0.51c-2.614,2.455-5.854,3.684-9.719,3.684
			c-3.24,0-5.774-0.916-7.603-2.744c-1.828-1.826-2.743-4.361-2.743-7.602c0-0.73,0.104-1.828,0.315-3.291l8.308-46.866h-34.64
			l-9.091,51.255c-0.63,3.447-0.941,6.688-0.941,9.717c0,8.777,2.298,15.65,6.896,20.611c4.598,4.965,11.18,7.447,19.75,7.447
			c6.269,0,11.886-1.307,16.848-3.922c3.378-1.775,6.405-3.947,9.133-6.453L384.936,104.718z"/>
	</g>
	<path fill="#A5A5A5" d="M69.909,122.705c-2.508,4.494-6.324,8.15-11.444,10.971c-5.121,2.82-11.442,4.232-18.965,4.232
		c-7.315,0-13.818-1.332-19.514-3.998c-5.696-2.664-10.241-6.32-13.638-10.971c-3.395-4.648-5.355-9.953-5.876-15.91h15.205
		c0.313,3.135,1.382,6.191,3.212,9.17c1.826,2.979,4.441,5.434,7.838,7.367c3.393,1.934,7.496,2.898,12.302,2.898
		c6.27,0,11.075-1.668,14.42-5.014c3.342-3.344,5.015-7.627,5.015-12.854c0-4.492-1.176-8.15-3.527-10.973
		c-2.351-2.82-5.251-5.039-8.699-6.66c-3.448-1.619-8.151-3.371-14.105-5.252c-7.001-2.297-12.618-4.467-16.851-6.504
		c-4.233-2.038-7.836-5.094-10.814-9.169C1.49,65.964,0,60.583,0,53.895c0-5.745,1.386-10.816,4.154-15.203
		c2.768-4.39,6.741-7.785,11.914-10.189c5.172-2.402,11.259-3.605,18.26-3.605c10.866,0,19.488,2.641,25.862,7.916
		c6.374,5.278,10.083,11.991,11.129,20.142h-15.36c-0.837-4.389-3.085-8.253-6.739-11.599c-3.661-3.343-8.623-5.015-14.892-5.015
		c-5.747,0-10.345,1.489-13.793,4.467c-3.449,2.979-5.173,7.185-5.173,12.617c0,4.286,1.123,7.758,3.37,10.423
		c2.247,2.665,5.041,4.757,8.387,6.27c3.342,1.517,7.938,3.213,13.792,5.095c7.105,2.299,12.824,4.495,17.163,6.583
		c4.335,2.092,8.017,5.251,11.048,9.482c3.032,4.232,4.547,9.852,4.547,16.85C73.67,113.353,72.416,118.212,69.909,122.705z"/>
	<path fill="#A5A5A5" d="M126.021,124.271v12.539h-10.66c-8.778,0-15.336-2.088-19.671-6.27c-4.336-4.178-6.503-11.18-6.503-21.002
		V63.143H76.334V50.76h12.854V29.286h14.417V50.76h22.259v12.383h-22.259v46.708c0,5.539,1.021,9.326,3.057,11.363
		c2.037,2.037,5.566,3.057,10.579,3.057H126.021z"/>
	<path fill="#A5A5A5" d="M192.083,55.933c5.8,4.181,9.85,9.772,12.148,16.77V50.76h14.265v86.05H204.23v-21.943
		c-2.298,7.002-6.348,12.594-12.148,16.771c-5.799,4.182-12.879,6.27-21.238,6.27c-7.628,0-14.418-1.775-20.375-5.328
		s-10.634-8.646-14.029-15.283c-3.395-6.635-5.094-14.445-5.094-23.434c0-8.984,1.699-16.822,5.094-23.51
		c3.395-6.686,8.072-11.807,14.029-15.361c5.957-3.551,12.747-5.33,20.375-5.33C179.204,49.662,186.283,51.754,192.083,55.933z
		 M153.839,70.744c-5.278,5.591-7.915,13.299-7.915,23.119c0,9.824,2.636,17.531,7.915,23.119
		c5.274,5.592,12.303,8.387,21.083,8.387c5.643,0,10.681-1.305,15.124-3.918c4.439-2.611,7.917-6.295,10.423-11.051
		c2.507-4.754,3.761-10.268,3.761-16.537c0-6.269-1.254-11.807-3.761-16.614c-2.506-4.806-5.984-8.489-10.423-11.05
		c-4.443-2.56-9.481-3.841-15.124-3.841C166.142,62.358,159.113,65.156,153.839,70.744z"/>
	<path fill="#A5A5A5" d="M260.032,54.286c5.432-3.292,11.912-3.526,19.435-3.526v12.383l-4.388,0.081
		c-8.049,0-14.631,3.708-19.75,7.834c-5.121,4.129-7.679,10.947-7.679,20.454v45.299h-14.265V50.76h14.265v17.398
		C250.47,62.202,254.598,57.578,260.032,54.286z"/>
	<path fill="#A5A5A5" d="M326.802,124.271v12.539h-10.658c-8.779,0-15.336-2.088-19.673-6.27c-4.337-4.178-6.503-11.18-6.503-21.002
		V63.143h-12.854V50.76h12.854V29.286h14.42V50.76h22.256v12.383h-22.256v46.708c0,5.539,1.018,9.326,3.057,11.363
		c2.037,2.037,5.564,3.057,10.579,3.057H326.802z"/>
	<path fill="none" stroke="#231F20" stroke-miterlimit="10" d="M421.909,0"/>
	<path fill="none" stroke="#231F20" stroke-miterlimit="10" d="M397.599,148.396"/>
	<g>
		<polygon fill="#00D442" points="380.108,162.785 414.897,162.785 415.376,160.064 380.59,160.064 		"/>
		<polygon fill="#00D442" points="381.165,156.798 415.95,156.798 416.501,153.669 381.716,153.669 		"/>
		<polygon fill="#00D442" points="382.388,149.859 417.17,149.859 417.823,146.146 383.042,146.146 		"/>
		<polygon fill="#00D442" points="379.269,167.554 414.061,167.554 414.419,165.505 379.63,165.505 		"/>
		<polygon fill="#00D442" points="378.119,174.085 412.912,174.085 413.104,172.996 378.311,172.996 		"/>
		<polygon fill="#00D442" points="378.597,171.363 413.391,171.363 413.677,169.73 378.887,169.73 		"/>
		<path fill="#00D442" d="M480.991,56.246c-5.437-5.957-12.593-8.935-21.475-8.935c-5.748,0-10.894,1.176-15.438,3.526
			c-4.546,2.352-8.282,5.565-11.208,9.64l1.608-8.85h4.569l-17.292-22.341L395.08,51.627h4.621l-15.892,90.165h34.778l2.998-17.051
			c1.463,4.074,4.047,7.289,7.759,9.639c3.708,2.352,8.437,3.527,14.185,3.527c6.896,0,13.428-1.803,19.593-5.408
			s11.441-8.828,15.829-15.674c4.391-6.844,7.42-14.914,9.093-24.217c0.729-3.761,1.098-7.625,1.098-11.598
			C489.142,70.458,486.422,62.202,480.991,56.246z M452.777,92.609c-0.838,4.703-2.691,8.361-5.565,10.973
			c-2.874,2.613-6.19,3.918-9.952,3.918c-3.239,0-5.799-0.965-7.681-2.898c-1.879-1.934-2.821-4.676-2.821-8.23
			c0-1.566,0.104-2.82,0.313-3.762c0.838-4.702,2.691-8.358,5.566-10.972c2.871-2.611,6.19-3.918,9.953-3.918
			c3.236,0,5.8,0.967,7.679,2.899c1.882,1.935,2.824,4.678,2.824,8.229C453.093,90.416,452.985,91.669,452.777,92.609z"/>
		<polygon fill="#00D442" points="377.83,175.716 412.624,175.716 412.72,175.173 377.926,175.173 		"/>
	</g>
</g>
</svg>
