<?xml version="1.0" encoding="utf-8"?>
<!-- Generator: Adobe Illustrator 16.0.0, SVG Export Plug-In . SVG Version: 6.00 Build 0)  -->
<!DOCTYPE svg PUBLIC "-//W3C//DTD SVG 1.1//EN" "http://www.w3.org/Graphics/SVG/1.1/DTD/svg11.dtd">
<svg version="1.1" id="Layer_1" xmlns="http://www.w3.org/2000/svg" xmlns:xlink="http://www.w3.org/1999/xlink" x="0px" y="0px"
	 width="489.143px" height="175.715px" viewBox="0 0 489.143 175.715" enable-background="new 0 0 489.143 175.715"
	 xml:space="preserve">
<g>
	<path fill="#FFFFFF" d="M70.613,123.792c-2.508,4.494-6.324,8.15-11.444,10.971c-5.121,2.82-11.442,4.232-18.965,4.232
		c-7.315,0-13.818-1.332-19.514-3.998c-5.696-2.664-10.241-6.32-13.638-10.971c-3.395-4.648-5.355-9.953-5.876-15.91h15.205
		c0.313,3.135,1.382,6.191,3.212,9.17c1.826,2.979,4.441,5.434,7.838,7.367c3.393,1.934,7.496,2.898,12.302,2.898
		c6.27,0,11.075-1.668,14.42-5.014c3.342-3.344,5.015-7.627,5.015-12.854c0-4.492-1.176-8.15-3.527-10.973
		c-2.351-2.82-5.251-5.039-8.699-6.66c-3.448-1.619-8.151-3.371-14.105-5.252c-7.001-2.297-12.618-4.467-16.851-6.504
		c-4.233-2.038-7.836-5.094-10.814-9.169c-2.979-4.075-4.469-9.457-4.469-16.145c0-5.745,1.386-10.816,4.154-15.203
		c2.768-4.39,6.741-7.785,11.914-10.189c5.172-2.402,11.259-3.605,18.26-3.605c10.866,0,19.488,2.641,25.862,7.916
		c6.374,5.278,10.083,11.991,11.129,20.142h-15.36c-0.837-4.389-3.085-8.253-6.739-11.599c-3.661-3.343-8.623-5.015-14.892-5.015
		c-5.747,0-10.345,1.489-13.793,4.467c-3.449,2.979-5.173,7.185-5.173,12.617c0,4.286,1.123,7.758,3.37,10.423
		c2.247,2.665,5.041,4.757,8.387,6.27c3.342,1.517,7.938,3.213,13.792,5.095c7.105,2.299,12.824,4.495,17.163,6.583
		c4.335,2.092,8.017,5.251,11.048,9.483c3.032,4.232,4.547,9.852,4.547,16.85C74.374,114.44,73.12,119.299,70.613,123.792z"/>
	<path fill="#FFFFFF" d="M126.725,125.358v12.539h-10.66c-8.778,0-15.336-2.088-19.671-6.27c-4.336-4.178-6.503-11.18-6.503-21.002
		V64.229H77.038V51.846h12.854V30.373h14.417v21.474h22.259v12.383h-22.259v46.709c0,5.539,1.021,9.326,3.057,11.363
		c2.037,2.037,5.566,3.057,10.579,3.057H126.725z"/>
	<path fill="#FFFFFF" d="M192.786,57.019c5.8,4.181,9.85,9.772,12.148,16.77V51.846h14.265v86.051h-14.265v-21.943
		c-2.298,7.002-6.348,12.594-12.148,16.771c-5.799,4.182-12.879,6.27-21.238,6.27c-7.628,0-14.418-1.775-20.375-5.328
		s-10.634-8.646-14.029-15.283c-3.395-6.635-5.094-14.445-5.094-23.434c0-8.985,1.699-16.822,5.094-23.511
		c3.395-6.686,8.072-11.807,14.029-15.361c5.957-3.551,12.747-5.33,20.375-5.33C179.907,50.749,186.987,52.84,192.786,57.019z
		 M154.543,71.83c-5.278,5.591-7.915,13.299-7.915,23.12c0,9.824,2.636,17.531,7.915,23.119c5.274,5.592,12.303,8.387,21.083,8.387
		c5.643,0,10.681-1.305,15.124-3.918c4.439-2.611,7.917-6.295,10.423-11.051c2.507-4.754,3.761-10.268,3.761-16.537
		s-1.254-11.807-3.761-16.614c-2.506-4.806-5.984-8.489-10.423-11.05c-4.443-2.56-9.481-3.841-15.124-3.841
		C166.845,63.444,159.817,66.242,154.543,71.83z"/>
	<path fill="#FFFFFF" d="M260.736,55.373c5.432-3.292,11.912-3.526,19.435-3.526v12.383l-4.388,0.081
		c-8.049,0-14.631,3.708-19.75,7.834c-5.121,4.129-7.679,10.947-7.679,20.454v45.299h-14.265V51.846h14.265v17.398
		C251.174,63.288,255.302,58.664,260.736,55.373z"/>
	<path fill="#FFFFFF" d="M327.506,125.358v12.539h-10.658c-8.779,0-15.336-2.088-19.673-6.27c-4.337-4.178-6.503-11.18-6.503-21.002
		V64.229h-12.854V51.846h12.854V30.373h14.42v21.474h22.256v12.383h-22.256v46.709c0,5.539,1.018,9.326,3.057,11.363
		c2.037,2.037,5.564,3.057,10.579,3.057H327.506z"/>
	<path fill="none" stroke="#231F20" stroke-miterlimit="10" d="M422.613,1.086"/>
	<path fill="none" stroke="#231F20" stroke-miterlimit="10" d="M398.302,149.483"/>
	<linearGradient id="SVGID_1_" gradientUnits="userSpaceOnUse" x1="347.8582" y1="146.1274" x2="459.1959" y2="34.7897">
		<stop  offset="0" style="stop-color:#F441A5"/>
		<stop  offset="1" style="stop-color:#03A9F4"/>
	</linearGradient>
	<path fill="url(#SVGID_1_)" d="M381.697,128.151c-2.728,2.506-5.755,4.678-9.133,6.453c-4.962,2.615-10.579,3.922-16.848,3.922
		c-8.57,0-15.152-2.482-19.75-7.447c-4.599-4.961-6.896-11.834-6.896-20.611c0-3.029,0.312-6.27,0.941-9.717l9.091-51.255h34.64
		l-8.308,46.867c-0.211,1.463-0.315,2.561-0.315,3.291c0,3.24,0.915,5.775,2.743,7.602c1.828,1.828,4.362,2.744,7.603,2.744
		c3.864,0,7.104-1.229,9.719-3.684c0.166-0.156,0.296-0.346,0.456-0.51L381.697,128.151z M380.812,163.872h34.789l0.479-2.721
		h-34.786L380.812,163.872z M381.869,157.885h34.785l0.551-3.129H382.42L381.869,157.885z M383.092,150.946h34.782l0.653-3.713
		h-34.781L383.092,150.946z M379.972,168.641h34.792l0.358-2.049h-34.789L379.972,168.641z M378.823,175.172h34.793l0.191-1.09
		h-34.793L378.823,175.172z M379.301,172.45h34.794l0.286-1.633h-34.79L379.301,172.45z M489.845,82.098
		c0,3.972-0.368,7.836-1.098,11.598c-1.673,9.303-4.702,17.373-9.093,24.217c-4.388,6.846-9.664,12.068-15.829,15.674
		s-12.696,5.408-19.593,5.408c-5.748,0-10.477-1.176-14.185-3.527c-3.712-2.35-6.296-5.564-7.759-9.639l-2.998,17.051h-34.778
		l15.892-90.166h-4.621l26.676-22.341l17.292,22.341h-4.569l-1.608,8.85c2.926-4.075,6.662-7.289,11.208-9.64
		c4.545-2.35,9.69-3.526,15.438-3.526c8.882,0,16.038,2.978,21.475,8.935C487.126,63.288,489.845,71.544,489.845,82.098z
		 M453.797,89.934c0-3.551-0.942-6.294-2.824-8.229c-1.879-1.933-4.442-2.899-7.679-2.899c-3.763,0-7.082,1.307-9.953,3.918
		c-2.875,2.614-4.729,6.27-5.566,10.972c-0.208,0.941-0.313,2.195-0.313,3.762c0,3.555,0.942,6.297,2.821,8.23
		c1.882,1.934,4.441,2.898,7.681,2.898c3.762,0,7.078-1.305,9.952-3.918c2.874-2.611,4.728-6.27,5.565-10.973
		C453.689,92.756,453.797,91.502,453.797,89.934z M378.534,176.803h34.794l0.096-0.543H378.63L378.534,176.803z"/>
</g>
</svg>
